
#include <EEPROM.h>
#include <avr/pgmspace.h>
#include "pitches.h"

const PROGMEM int JyapariPark[] = {NOTE_A4,NOTE_F4,NOTE_C4,NOTE_C5,NOTE_A4,NOTE_F5,NOTE_E5,
NOTE_F5,NOTE_G5,NOTE_F5,NOTE_G5,NOTE_A5,NOTE_AS5,NOTE_B5,NOTE_C6,NOTE_A5,NOTE_G5,NOTE_F5,NOTE_F5,NOTE_D6,NOTE_C6,
NOTE_F5,NOTE_D5,NOTE_AS5,NOTE_A5,NOTE_G5,NOTE_F5,NOTE_E4,NOTE_E4,NOTE_DS4,NOTE_DS4,NOTE_D4,NOTE_D4,NOTE_D4,NOTE_D4,
NOTE_CS4,NOTE_CS4,NOTE_C4,NOTE_C4,NOTE_B3,NOTE_B3,NOTE_B3,NOTE_C4,NOTE_C4,NOTE_C4,NOTE_C4,NOTE_F4,NOTE_F4,NOTE_E4,
NOTE_E4,NOTE_DS4,NOTE_DS4,NOTE_D4,NOTE_D4,NOTE_D4,NOTE_D4,NOTE_CS4,NOTE_CS4,NOTE_C4,NOTE_C4,NOTE_B3,NOTE_B3,NOTE_B3,
NOTE_C4,NOTE_C4,NOTE_C4,NOTE_C4,0,NOTE_F4,NOTE_GS4,NOTE_F4,NOTE_GS4,NOTE_F4,0,NOTE_GS4,NOTE_AS4,NOTE_AS4,NOTE_GS4,
NOTE_AS4,NOTE_B4,NOTE_AS4,NOTE_GS4,NOTE_F4,NOTE_DS4,NOTE_F4,0,NOTE_GS5,NOTE_F5,NOTE_DS5,NOTE_F5,0,NOTE_F4,NOTE_GS4,
NOTE_F4,NOTE_GS4,NOTE_F4,0,NOTE_GS4,NOTE_AS4,NOTE_AS4,NOTE_GS4,NOTE_AS4,NOTE_B4,NOTE_AS4,NOTE_GS4,NOTE_F4,NOTE_DS4,
NOTE_F4,0,NOTE_AS3,NOTE_B3,NOTE_C4,0,NOTE_A5,NOTE_A5,NOTE_A5,NOTE_A5,NOTE_A5,NOTE_D6,NOTE_A5,NOTE_A5,NOTE_A5,NOTE_G5,
NOTE_G5,NOTE_G5,NOTE_F5,NOTE_G5,NOTE_G5,NOTE_G5,NOTE_G5,NOTE_G5,NOTE_C6,NOTE_C6,NOTE_G5,NOTE_G5,0,NOTE_FS5,0,NOTE_G5,
0,NOTE_A5,0,NOTE_AS5,NOTE_D5,NOTE_D5,NOTE_A5,NOTE_C5,NOTE_C5,0,NOTE_C5,NOTE_CS5,NOTE_DS5,NOTE_F5,NOTE_C6,NOTE_A5,
NOTE_AS5,NOTE_A5,NOTE_A5,NOTE_G5,0,NOTE_C6,0,NOTE_G5,0,NOTE_C6,0,NOTE_F5,NOTE_E5,NOTE_F5,NOTE_G5,NOTE_F5,NOTE_G5,
NOTE_A5,NOTE_AS5,NOTE_B5,NOTE_C6,NOTE_A5,NOTE_G5,NOTE_F5,NOTE_F5,NOTE_D6,NOTE_C6,NOTE_F5,NOTE_AS5,NOTE_A5,NOTE_G5,
NOTE_F5,NOTE_G5,0,NOTE_F5,NOTE_E5,NOTE_F5,NOTE_G5,NOTE_F5,NOTE_G5,NOTE_A5,NOTE_AS5,NOTE_B5,NOTE_C6,NOTE_A5,
NOTE_G5,NOTE_F5,NOTE_F5,NOTE_D6,NOTE_C6,NOTE_F5,NOTE_D5,NOTE_AS5,NOTE_A5,NOTE_G5,NOTE_F5,0,NOTE_F5,NOTE_F5,NOTE_G5,
NOTE_GS5,NOTE_G5,NOTE_F5,NOTE_CS5,NOTE_C5,NOTE_A5,NOTE_A5,NOTE_A5,NOTE_GS4,NOTE_A5,NOTE_AS5,NOTE_C6,NOTE_B5,NOTE_A5,
0,NOTE_A5,NOTE_AS5,NOTE_A5,NOTE_F5,NOTE_D5,NOTE_F5,NOTE_A5,NOTE_F5,NOTE_D5,NOTE_F5,NOTE_AS5,NOTE_A5,NOTE_F5,NOTE_CS5,
NOTE_CS5,NOTE_C5,NOTE_G5,NOTE_F5,NOTE_F5,NOTE_E4,NOTE_E4,NOTE_DS4,NOTE_DS4,NOTE_D4,NOTE_D4,NOTE_D4,NOTE_D4,
NOTE_CS4,NOTE_CS4,NOTE_C4,NOTE_C4,NOTE_B3,NOTE_B3,NOTE_B3,NOTE_C4,NOTE_C4,NOTE_C4,NOTE_C4,NOTE_F4,NOTE_F4,NOTE_E4,
NOTE_E4,NOTE_DS4,NOTE_DS4,NOTE_D4,NOTE_D4,NOTE_D4,NOTE_D4,NOTE_CS4,NOTE_CS4,NOTE_C4,NOTE_C4,NOTE_B3,NOTE_B3,NOTE_B3,
NOTE_C4,NOTE_C4,NOTE_C4,NOTE_C4,0,NOTE_F4,NOTE_GS4,NOTE_F4,NOTE_GS4,NOTE_F4,0,NOTE_GS4,NOTE_AS4,NOTE_AS4,NOTE_GS4,
NOTE_AS4,NOTE_B4,NOTE_AS4,NOTE_GS4,NOTE_F4,NOTE_DS4,NOTE_F4,0,NOTE_GS5,NOTE_F5,NOTE_DS5,NOTE_F5,0,NOTE_F4,NOTE_GS4,
NOTE_F4,NOTE_GS4,NOTE_F4,0,NOTE_GS4,NOTE_AS4,NOTE_AS4,NOTE_GS4,NOTE_AS4,NOTE_B4,NOTE_AS4,NOTE_GS4,NOTE_F4,NOTE_DS4,
NOTE_F4,0,NOTE_AS3,NOTE_B3,NOTE_C4,0,NOTE_A5,NOTE_A5,NOTE_A5,NOTE_A5,NOTE_A5,NOTE_D6,NOTE_A5,NOTE_A5,NOTE_A5,NOTE_G5,
NOTE_G5,NOTE_G5,NOTE_F5,NOTE_G5,NOTE_G5,NOTE_G5,NOTE_G5,NOTE_G5,NOTE_C6,NOTE_C6,NOTE_G5,NOTE_G5,0,NOTE_FS5,0,NOTE_G5,
0,NOTE_A5,0,NOTE_AS5,NOTE_D5,NOTE_D5,NOTE_A5,NOTE_C5,NOTE_C5,0,NOTE_C5,NOTE_CS5,NOTE_DS5,NOTE_F5,NOTE_C6,NOTE_A5,
NOTE_AS5,NOTE_A5,NOTE_A5,NOTE_G5,0,NOTE_C6,0,NOTE_G5,0,NOTE_C6,0,NOTE_F5,NOTE_E5,NOTE_F5,NOTE_G5,NOTE_F5,NOTE_G5,
NOTE_A5,NOTE_AS5,NOTE_B5,NOTE_C6,NOTE_A5,NOTE_G5,NOTE_F5,NOTE_F5,NOTE_D6,NOTE_C6,NOTE_F5,NOTE_AS5,NOTE_A5,NOTE_G5,
NOTE_F5,NOTE_G5,0,NOTE_F5,NOTE_E5,NOTE_F5,NOTE_G5,NOTE_F5,NOTE_G5,NOTE_A5,NOTE_AS5,NOTE_B5,NOTE_C6,NOTE_A5,
NOTE_G5,NOTE_F5,NOTE_F5,NOTE_D6,NOTE_C6,NOTE_F5,NOTE_D5,NOTE_AS5,NOTE_A5,NOTE_G5,NOTE_F5,0,NOTE_F5,NOTE_F5,NOTE_G5,
NOTE_GS5,NOTE_G5,NOTE_F5,NOTE_CS5,NOTE_C5,NOTE_A5,NOTE_A5,NOTE_A5,NOTE_GS4,NOTE_A5,NOTE_AS5,NOTE_C6,NOTE_B5,NOTE_A5,
0,NOTE_A5,NOTE_AS5,NOTE_A5,NOTE_F5,NOTE_D5,NOTE_F5,NOTE_A5,NOTE_F5,NOTE_D5,NOTE_F5,NOTE_AS5,NOTE_A5,NOTE_F5,NOTE_CS5,
NOTE_CS5,NOTE_C5,NOTE_G5,NOTE_F5,NOTE_F5,0,NOTE_FS5,0,NOTE_G5,0,NOTE_GS5,0,NOTE_F5,NOTE_E5,NOTE_F5,NOTE_G5,NOTE_F5,
NOTE_G5,NOTE_GS5,NOTE_AS5,NOTE_B5,NOTE_C5,NOTE_G5,NOTE_GS5,NOTE_C5,NOTE_D5,NOTE_DS5,NOTE_AS5,NOTE_C6,NOTE_GS4,
NOTE_G4,NOTE_GS4,NOTE_AS4,NOTE_GS4,NOTE_AS4,NOTE_C4,NOTE_C4,NOTE_CS4,NOTE_DS4,NOTE_GS3,NOTE_AS3,NOTE_B3,NOTE_DS4,
NOTE_F4,NOTE_FS4,NOTE_C4,NOTE_CS4,NOTE_DS4,NOTE_GS4,NOTE_AS4,NOTE_B4,NOTE_DS5,NOTE_AS4,NOTE_DS5,NOTE_AS4,NOTE_DS5,
NOTE_AS4,NOTE_DS5,0,NOTE_F5,NOTE_AS5,NOTE_AS5,NOTE_AS5,NOTE_AS5,0,NOTE_A5,0,NOTE_F5,NOTE_G5,NOTE_G5,NOTE_G5,NOTE_F5,
NOTE_G5,NOTE_F5,0,NOTE_E5,NOTE_F5,NOTE_D5,NOTE_E5,NOTE_F5,NOTE_C5,NOTE_F5,NOTE_C6,NOTE_AS5,NOTE_A5,NOTE_G5,
NOTE_F5,NOTE_A5,NOTE_AS5,NOTE_D5,NOTE_G5,0,NOTE_A5,NOTE_G5,NOTE_A5,NOTE_AS5,NOTE_A5,NOTE_AS5,NOTE_C6,NOTE_D6,NOTE_E6
,NOTE_F6,0,NOTE_F5,NOTE_E5,NOTE_F5,NOTE_G5,NOTE_F5,NOTE_G5,NOTE_A5,NOTE_AS5,NOTE_B5,NOTE_C6,NOTE_A5,NOTE_G5,NOTE_F5,
NOTE_F5,NOTE_D6,NOTE_C6,NOTE_F5,NOTE_AS5,NOTE_A5,NOTE_G5,NOTE_F5,NOTE_G5,0,NOTE_F5,NOTE_E5,NOTE_F5,NOTE_G5,NOTE_F5
,NOTE_G5,NOTE_A5,NOTE_AS5,NOTE_B5,NOTE_C6,NOTE_A5,NOTE_G5,NOTE_F5,NOTE_F5,NOTE_D6,NOTE_C6,NOTE_F5,NOTE_D5,NOTE_AS5,
NOTE_A5,NOTE_G5,NOTE_F5,0,NOTE_F5,NOTE_F5,NOTE_G5,NOTE_GS5,NOTE_G5,NOTE_F5,NOTE_CS5,NOTE_C5,NOTE_A5,NOTE_A5,NOTE_A5,
NOTE_GS4,NOTE_A5,NOTE_AS5,NOTE_C6,NOTE_B5,NOTE_A5,0,NOTE_A5,NOTE_AS5,NOTE_A5,NOTE_F5,NOTE_D5,NOTE_F5,NOTE_A5,NOTE_F5,
NOTE_D5,NOTE_F5,NOTE_AS5,NOTE_A5,NOTE_F5,NOTE_CS5,NOTE_CS5,NOTE_C5,NOTE_G5,NOTE_F5,NOTE_F5,NOTE_E4,NOTE_E4,NOTE_DS4,
NOTE_DS4,NOTE_D4,NOTE_D4,NOTE_D4,NOTE_D4,NOTE_CS4,NOTE_CS4,NOTE_C4,NOTE_C4,NOTE_B3,NOTE_B3,NOTE_B3,NOTE_C4,NOTE_C4,
NOTE_C4,NOTE_C4,NOTE_A5,NOTE_F5,NOTE_D5,NOTE_G5,NOTE_G5,NOTE_E5,NOTE_C5,NOTE_F5,NOTE_A4,NOTE_AS4,NOTE_F5,
NOTE_E5,NOTE_F5,NOTE_E5,NOTE_D5,NOTE_C5,NOTE_A4,NOTE_D5,NOTE_A5,NOTE_F5,NOTE_D5,NOTE_G5,
NOTE_G5,NOTE_A5,NOTE_AS5,NOTE_A5,NOTE_G5,NOTE_F5,NOTE_AS4,NOTE_F5,NOTE_E5,NOTE_F5,NOTE_G5,
NOTE_G5,NOTE_F5,NOTE_F5,NOTE_A5,NOTE_F5,NOTE_D5,NOTE_G5,NOTE_G5,NOTE_E5,NOTE_C5,NOTE_F5,NOTE_A4,
NOTE_AS4,NOTE_F5,NOTE_E5,NOTE_F5,NOTE_E5,NOTE_D5,NOTE_C5,NOTE_A4,NOTE_D5,NOTE_A5,NOTE_F5,NOTE_D5,NOTE_G5,
NOTE_G5,NOTE_A5,NOTE_AS5,NOTE_A5,NOTE_G5,NOTE_F5,NOTE_AS4,NOTE_F5,NOTE_E5,NOTE_F5,NOTE_G5,NOTE_G5,NOTE_F5,
NOTE_F5,NOTE_AS4,NOTE_F5,NOTE_E5,NOTE_F5,NOTE_G5,NOTE_F5,NOTE_G5,NOTE_F5,0};

unsigned char JyapariParklen[] = {6,12,6,12,24,6,6,6,12,6,6,12,6,6,12,6,6,6,12,12,12,12,12,12,12,12,12,6,6,6,6,3,3,3,
3,6,6,6,6,6,3,3,3,3,3,3,6,6,6,6,6,6,3,3,3,3,6,6,6,6,6,3,3,3,3,3,3,6,6,6,6,9,3,6,12,6,6,6,6,12,6,6,6,6,12,12,6,6,6,18,
18,6,6,6,9,3,6,12,6,6,6,6,12,6,6,6,6,18,12,12,12,12,12,6,6,6,6,6,6,12,6,6,6,6,6,6,12,6,6,6,6,6,6,6,6,6,6,6,6,6,6,6,
24,6,24,18,6,12,6,6,12,6,12,12,12,6,6,6,24,12,6,6,6,6,6,6,6,6,6,12,6,6,12,6,6,12,6,6,6,12,12,12,12,6,6,6,6,12,12,6,
6,6,12,6,6,12,6,6,12,6,6,6,12,12,12,12,12,12,12,12,24,6,6,6,6,12,12,12,12,8,8,8,8,8,8,18,3,3,12,6,6,12,6,12,12,18,
6,12,12,6,12,6,12,12,6,24,18,6,12,6,6,6,6,3,3,3,3,6,6,6,6,6,3,3,3,3,3,3,6,6,6,6,6,6,3,3,3,3,6,6,6,6,6,3,3,3,3,3,
3,6,6,6,6,9,3,6,12,6,6,6,6,12,6,6,6,6,12,12,6,6,6,18,18,6,6,6,9,3,6,12,6,6,6,6,12,6,6,6,6,18,12,12,12,12,12,6,6,6,
6,6,6,12,6,6,6,6,6,6,12,6,6,6,6,6,6,6,6,6,6,6,6,6,6,6,24,6,24,18,6,12,6,6,12,6,12,12,12,6,6,6,24,12,6,6,6,6,6,6,6,
6,6,12,6,6,12,6,6,12,6,6,6,12,12,12,12,6,6,6,6,12,12,6,6,6,12,6,6,12,6,6,12,6,6,6,12,12,12,12,12,12,12,12,24,6,6,6,
6,12,12,12,12,8,8,8,8,8,8,18,3,3,12,6,6,12,6,12,12,18,6,12,12,6,12,6,12,12,6,24,18,6,12,30,48,0,48,0,42,12,6,6,6,12,
6,6,12,6,6,18,6,12,6,6,18,6,54,6,6,6,12,6,6,12,6,6,12,6,6,12,6,6,12,6,6,30,6,6,6,18,12,12,12,12,12,12,6,6,12,12,6,6,
6,6,42,6,12,12,6,6,6,6,24,12,12,24,12,12,24,12,12,12,12,12,12,18,3,3,12,12,6,6,6,12,6,6,12,6,6,6,24,6,6,6,12,6,6,
12,6,6,12,6,6,6,12,12,12,12,6,6,6,6,12,12,6,6,6,12,6,6,12,6,6,12,6,6,6,12,12,12,12,12,12,12,12,24,6,6,6,6,12,12,12,
12,8,8,8,8,8,8,18,3,3,12,6,6,12,6,12,12,18,6,12,12,6,12,6,12,12,6,24,18,6,12,6,6,6,6,3,3,3,3,6,6,6,6,6,3,3,3,3,3,3,
6,6,6,30,6,6,6,18,12,12,12,6,6,12,6,6,6,30,6,6,6,30,6,6,6,12,6,12,12,12,12,6,6,18,6,24,6,6,6,30,6,6,6,18,12,12,12,
6,6,12,6,6,6,30,6,6,6,30,6,6,6,12,6,12,12,12,12,6,6,18,6,24,12,12,12,6,12,6,12,12,12};

unsigned char bpm = 100;
short int duration = 60000/bpm;
char pin = 3;
int soundtone = 0;

void setup() {
  for (short int i = 0; i <  sizeof(JyapariPark) / sizeof(short int); i++) { 
    if (i>=5){
      bpm = 170;
      duration = 60000/bpm;
    }
    soundtone = pgm_read_word(JyapariPark + i);
    tone(pin,soundtone); 
    delay((duration-50)*JyapariParklen[i]/12);
    noTone(pin);
    delay(50*JyapariParklen[i]/12);
  }
}

void loop() {
}
